<mxfile host="65bd71144e">
    <diagram id="l27_RHs7Inlry4CoIQ_y" name="Page-1">
        <mxGraphModel dx="747" dy="532" grid="1" gridSize="10" guides="1" tooltips="1" connect="1" arrows="1" fold="1" page="1" pageScale="1" pageWidth="850" pageHeight="1100" math="0" shadow="0">
            <root>
                <mxCell id="0"/>
                <mxCell id="1" parent="0"/>
                <mxCell id="174" value="" style="whiteSpace=wrap;html=1;rounded=0;glass=0;sketch=0;strokeColor=#000000;fontSize=9;fontColor=#000000;fillColor=#FFFFFF;" vertex="1" parent="1">
                    <mxGeometry x="110" y="320.02" width="230" height="209.98" as="geometry"/>
                </mxCell>
                <mxCell id="162" value="" style="whiteSpace=wrap;html=1;rounded=0;glass=0;sketch=0;strokeColor=#000000;fontSize=9;fontColor=#000000;fillColor=#FFFFFF;" vertex="1" parent="1">
                    <mxGeometry x="60" y="560" width="420" height="240" as="geometry"/>
                </mxCell>
                <mxCell id="147" value="" style="group" vertex="1" connectable="0" parent="1">
                    <mxGeometry x="60" y="1280" width="160" height="80" as="geometry"/>
                </mxCell>
                <mxCell id="146" value="" style="whiteSpace=wrap;html=1;rounded=0;glass=0;sketch=0;strokeColor=#000000;fontSize=9;fontColor=#000000;fillColor=#FFFFFF;" vertex="1" parent="147">
                    <mxGeometry width="160" height="80" as="geometry"/>
                </mxCell>
                <mxCell id="107" value="&lt;b&gt;Left motor&lt;/b&gt;" style="text;strokeColor=none;align=center;fillColor=none;html=1;verticalAlign=middle;whiteSpace=wrap;rounded=0;glass=0;sketch=0;fontSize=9;fontColor=#000000;" parent="147" vertex="1">
                    <mxGeometry x="47.87967948717949" y="10" width="64.23076923076923" height="7.57" as="geometry"/>
                </mxCell>
                <mxCell id="93" value="&lt;font style=&quot;font-size: 9px;&quot; color=&quot;#000000&quot;&gt;Left motor input voltage&lt;/font&gt;" style="text;strokeColor=#000000;align=center;fillColor=#FFFFFF;html=1;verticalAlign=middle;whiteSpace=wrap;rounded=0;glass=0;" parent="147" vertex="1">
                    <mxGeometry x="7.009999999999991" y="30" width="60.31" height="40" as="geometry"/>
                </mxCell>
                <mxCell id="102" value="&lt;font size=&quot;1&quot; color=&quot;#000000&quot;&gt;Left motor encoders signal&lt;/font&gt;" style="text;strokeColor=#000000;align=center;fillColor=#FFFFFF;html=1;verticalAlign=middle;whiteSpace=wrap;rounded=0;glass=0;" parent="147" vertex="1">
                    <mxGeometry x="90.29000000000002" y="30.00999999999999" width="60.31" height="39.99" as="geometry"/>
                </mxCell>
                <mxCell id="125" style="edgeStyle=none;html=1;strokeColor=#000000;strokeWidth=3;fontSize=9;fontColor=#000000;startArrow=classic;startFill=1;endArrow=none;endFill=0;" parent="1" source="95" target="120" edge="1">
                    <mxGeometry relative="1" as="geometry">
                        <Array as="points"/>
                    </mxGeometry>
                </mxCell>
                <mxCell id="111" value="" style="edgeStyle=none;orthogonalLoop=1;jettySize=auto;html=1;strokeColor=#000000;strokeWidth=3;fontSize=9;fontColor=#000000;startArrow=classic;startFill=1;endArrow=none;endFill=0;" parent="1" source="81" edge="1">
                    <mxGeometry width="80" relative="1" as="geometry">
                        <mxPoint x="190" y="1272.52" as="sourcePoint"/>
                        <mxPoint x="140" y="1225" as="targetPoint"/>
                        <Array as="points"/>
                    </mxGeometry>
                </mxCell>
                <mxCell id="121" style="edgeStyle=none;html=1;strokeColor=#000000;strokeWidth=3;fontSize=9;fontColor=#000000;startArrow=classic;startFill=1;endArrow=none;endFill=0;" parent="1" target="168" edge="1">
                    <mxGeometry relative="1" as="geometry">
                        <Array as="points"/>
                        <mxPoint x="239.83" y="159.98" as="sourcePoint"/>
                        <mxPoint x="209.83" y="89.50866390170162" as="targetPoint"/>
                    </mxGeometry>
                </mxCell>
                <mxCell id="118" value="&lt;font style=&quot;font-size: 9px;&quot; color=&quot;#000000&quot;&gt;Estimate pose&lt;br&gt;&lt;/font&gt;" style="text;strokeColor=#000000;align=center;fillColor=#FFFFFF;html=1;verticalAlign=middle;whiteSpace=wrap;rounded=0;glass=0;" parent="1" vertex="1">
                    <mxGeometry x="126.84000000000003" y="470" width="56.34" height="50" as="geometry"/>
                </mxCell>
                <mxCell id="124" style="edgeStyle=none;html=1;strokeColor=#000000;strokeWidth=3;fontSize=9;fontColor=#000000;startArrow=classic;startFill=1;endArrow=none;endFill=0;" parent="1" source="120" target="122" edge="1">
                    <mxGeometry relative="1" as="geometry"/>
                </mxCell>
                <mxCell id="120" value="&lt;font style=&quot;font-size: 9px;&quot; color=&quot;#000000&quot;&gt;Trajetory generator&lt;br&gt;&lt;/font&gt;" style="text;strokeColor=#000000;align=center;fillColor=#FFFFFF;html=1;verticalAlign=middle;whiteSpace=wrap;rounded=0;glass=0;" parent="1" vertex="1">
                    <mxGeometry x="234.10000000000014" y="469.9999999999999" width="56.34" height="50" as="geometry"/>
                </mxCell>
                <mxCell id="122" value="&lt;font style=&quot;font-size: 9px;&quot; color=&quot;#000000&quot;&gt;Main task&lt;br&gt;&lt;/font&gt;" style="text;strokeColor=#000000;align=center;fillColor=#FFFFFF;html=1;verticalAlign=middle;whiteSpace=wrap;rounded=0;glass=0;" parent="1" vertex="1">
                    <mxGeometry x="234.10000000000014" y="359.9999999999999" width="56.34" height="50" as="geometry"/>
                </mxCell>
                <mxCell id="130" value="" style="whiteSpace=wrap;html=1;rounded=0;glass=0;sketch=0;strokeColor=#000000;fontSize=9;fontColor=#000000;fillColor=#FFFFFF;" vertex="1" parent="1">
                    <mxGeometry x="148.17" y="1110" width="211.83" height="120" as="geometry"/>
                </mxCell>
                <mxCell id="81" value="&lt;font style=&quot;font-size: 9px;&quot; color=&quot;#000000&quot;&gt;Driver left motor control&lt;/font&gt;" style="text;strokeColor=#000000;align=center;fillColor=#FFFFFF;html=1;verticalAlign=middle;whiteSpace=wrap;rounded=0;glass=0;" parent="1" vertex="1">
                    <mxGeometry x="176.34" y="1179.9999999999998" width="60" height="31.82" as="geometry"/>
                </mxCell>
                <mxCell id="83" value="&lt;font style=&quot;font-size: 9px;&quot; color=&quot;#000000&quot;&gt;Driver right motor control&lt;/font&gt;" style="text;strokeColor=#000000;align=center;fillColor=#FFFFFF;html=1;verticalAlign=middle;whiteSpace=wrap;rounded=0;glass=0;" parent="1" vertex="1">
                    <mxGeometry x="280" y="1149.9999999999998" width="60" height="30" as="geometry"/>
                </mxCell>
                <mxCell id="133" value="&lt;b&gt;Motor driver&lt;/b&gt;" style="text;strokeColor=none;align=center;fillColor=none;html=1;verticalAlign=middle;whiteSpace=wrap;rounded=0;glass=0;sketch=0;fontSize=9;fontColor=#000000;" vertex="1" parent="1">
                    <mxGeometry x="176.34" y="1114" width="60" height="10" as="geometry"/>
                </mxCell>
                <mxCell id="148" value="" style="group" vertex="1" connectable="0" parent="1">
                    <mxGeometry x="310" y="1280" width="160" height="80" as="geometry"/>
                </mxCell>
                <mxCell id="149" value="" style="whiteSpace=wrap;html=1;rounded=0;glass=0;sketch=0;strokeColor=#000000;fontSize=9;fontColor=#000000;fillColor=#FFFFFF;" vertex="1" parent="148">
                    <mxGeometry width="160" height="80" as="geometry"/>
                </mxCell>
                <mxCell id="150" value="&lt;b&gt;Right motor&lt;/b&gt;" style="text;strokeColor=none;align=center;fillColor=none;html=1;verticalAlign=middle;whiteSpace=wrap;rounded=0;glass=0;sketch=0;fontSize=9;fontColor=#000000;" vertex="1" parent="148">
                    <mxGeometry x="47.87967948717949" y="10" width="64.23076923076923" height="7.57" as="geometry"/>
                </mxCell>
                <mxCell id="151" value="&lt;font style=&quot;font-size: 9px;&quot; color=&quot;#000000&quot;&gt;Right motor input voltage&lt;/font&gt;" style="text;strokeColor=#000000;align=center;fillColor=#FFFFFF;html=1;verticalAlign=middle;whiteSpace=wrap;rounded=0;glass=0;" vertex="1" parent="148">
                    <mxGeometry x="7.009999999999991" y="30" width="60.31" height="40" as="geometry"/>
                </mxCell>
                <mxCell id="152" value="&lt;font size=&quot;1&quot; color=&quot;#000000&quot;&gt;Right motor encoders signal&lt;/font&gt;" style="text;strokeColor=#000000;align=center;fillColor=#FFFFFF;html=1;verticalAlign=middle;whiteSpace=wrap;rounded=0;glass=0;" vertex="1" parent="148">
                    <mxGeometry x="90.29000000000002" y="30.00999999999999" width="60.31" height="39.99" as="geometry"/>
                </mxCell>
                <mxCell id="153" style="edgeStyle=orthogonalEdgeStyle;html=1;fontSize=9;fontColor=#000000;startArrow=none;startFill=0;endArrow=classic;endFill=1;strokeColor=#000000;strokeWidth=3;" edge="1" parent="1" source="83" target="151">
                    <mxGeometry relative="1" as="geometry">
                        <Array as="points">
                            <mxPoint x="290" y="1196"/>
                            <mxPoint x="290" y="1240"/>
                        </Array>
                        <mxPoint x="250" y="1164.1" as="sourcePoint"/>
                        <mxPoint x="327.01" y="1130" as="targetPoint"/>
                    </mxGeometry>
                </mxCell>
                <mxCell id="154" style="edgeStyle=orthogonalEdgeStyle;html=1;fontSize=9;fontColor=#000000;startArrow=none;startFill=0;endArrow=classic;endFill=1;strokeColor=#000000;strokeWidth=3;" edge="1" parent="1" source="81" target="93">
                    <mxGeometry relative="1" as="geometry">
                        <Array as="points">
                            <mxPoint x="206" y="1220"/>
                            <mxPoint x="200" y="1220"/>
                            <mxPoint x="200" y="1250"/>
                            <mxPoint x="97" y="1250"/>
                        </Array>
                        <mxPoint x="250" y="1150" as="sourcePoint"/>
                        <mxPoint x="327.01" y="1193.8" as="targetPoint"/>
                    </mxGeometry>
                </mxCell>
                <mxCell id="156" style="edgeStyle=orthogonalEdgeStyle;html=1;fontSize=9;fontColor=#000000;startArrow=none;startFill=0;endArrow=classic;endFill=1;strokeColor=#000000;strokeWidth=3;" edge="1" parent="1" source="102" target="100">
                    <mxGeometry relative="1" as="geometry">
                        <Array as="points">
                            <mxPoint x="180" y="1400"/>
                            <mxPoint x="50" y="1400"/>
                            <mxPoint x="50" y="1030"/>
                            <mxPoint x="138" y="1030"/>
                        </Array>
                        <mxPoint x="469.65" y="1130" as="sourcePoint"/>
                        <mxPoint x="546.66" y="1100" as="targetPoint"/>
                    </mxGeometry>
                </mxCell>
                <mxCell id="157" style="edgeStyle=orthogonalEdgeStyle;html=1;fontSize=9;fontColor=#000000;startArrow=none;startFill=0;endArrow=classic;endFill=1;strokeColor=#000000;strokeWidth=3;" edge="1" parent="1" source="149" target="100">
                    <mxGeometry relative="1" as="geometry">
                        <Array as="points">
                            <mxPoint x="390" y="1400"/>
                            <mxPoint x="50" y="1400"/>
                            <mxPoint x="50" y="1030"/>
                            <mxPoint x="138" y="1030"/>
                        </Array>
                        <mxPoint x="488.94" y="1226" as="sourcePoint"/>
                        <mxPoint x="166.34" y="1070" as="targetPoint"/>
                    </mxGeometry>
                </mxCell>
                <mxCell id="160" value="" style="edgeStyle=orthogonalEdgeStyle;orthogonalLoop=1;jettySize=auto;html=1;endArrow=none;endFill=0;jumpSize=12;strokeWidth=3;endSize=6;startArrow=classic;startFill=1;strokeColor=#000000;" edge="1" parent="1" source="81" target="126">
                    <mxGeometry width="80" relative="1" as="geometry">
                        <mxPoint x="-33.09870000000001" y="898.29" as="sourcePoint"/>
                        <mxPoint x="448" y="967.52" as="targetPoint"/>
                        <Array as="points">
                            <mxPoint x="130" y="1154"/>
                            <mxPoint x="130" y="1050"/>
                            <mxPoint x="436" y="1050"/>
                        </Array>
                    </mxGeometry>
                </mxCell>
                <mxCell id="161" value="" style="group" vertex="1" connectable="0" parent="1">
                    <mxGeometry x="80" y="580" width="400" height="293.81000000000006" as="geometry"/>
                </mxCell>
                <mxCell id="99" value="&lt;font style=&quot;font-size: 9px;&quot; color=&quot;#000000&quot;&gt;Pulses to velocity conversion&lt;/font&gt;" style="text;strokeColor=#000000;align=center;fillColor=#FFFFFF;html=1;verticalAlign=middle;whiteSpace=wrap;rounded=0;glass=0;" parent="161" vertex="1">
                    <mxGeometry x="20.170000000000005" y="68" width="56.34" height="40.4" as="geometry"/>
                </mxCell>
                <mxCell id="100" value="&lt;font style=&quot;font-size: 9px;&quot; color=&quot;#000000&quot;&gt;Encoders reader task&lt;/font&gt;" style="text;strokeColor=#000000;align=center;fillColor=#FFFFFF;html=1;verticalAlign=middle;whiteSpace=wrap;rounded=0;glass=0;" parent="161" vertex="1">
                    <mxGeometry x="20.170000000000005" y="132.0000000000001" width="56.34" height="30" as="geometry"/>
                </mxCell>
                <mxCell id="95" value="&lt;font size=&quot;1&quot; color=&quot;#000000&quot;&gt;Motion controller&lt;/font&gt;" style="text;strokeColor=#000000;align=center;fillColor=#FFFFFF;html=1;verticalAlign=middle;whiteSpace=wrap;rounded=0;glass=0;" parent="161" vertex="1">
                    <mxGeometry x="177.49" y="8.999999999999982" width="56.34" height="30" as="geometry"/>
                </mxCell>
                <mxCell id="97" value="&lt;font style=&quot;font-size: 9px;&quot; color=&quot;#000000&quot;&gt;Motor target&lt;br&gt;velocities&lt;br&gt;generator&lt;br&gt;&lt;/font&gt;" style="text;strokeColor=#000000;align=center;fillColor=#FFFFFF;html=1;verticalAlign=middle;whiteSpace=wrap;rounded=0;glass=0;" parent="161" vertex="1">
                    <mxGeometry x="317.65000000000003" y="-1" width="56.34" height="50" as="geometry"/>
                </mxCell>
                <mxCell id="98" value="&lt;font size=&quot;1&quot; color=&quot;#000000&quot;&gt;Motor controller&lt;/font&gt;" style="text;strokeColor=#000000;align=center;fillColor=#FFFFFF;html=1;verticalAlign=middle;whiteSpace=wrap;rounded=0;glass=0;" parent="161" vertex="1">
                    <mxGeometry x="311.82" y="78" width="68" height="38.81" as="geometry"/>
                </mxCell>
                <mxCell id="126" value="&lt;font style=&quot;font-size: 9px;&quot; color=&quot;#000000&quot;&gt;Driver controller&lt;/font&gt;" style="text;strokeColor=#000000;align=center;fillColor=#FFFFFF;html=1;verticalAlign=middle;whiteSpace=wrap;rounded=0;glass=0;" parent="161" vertex="1">
                    <mxGeometry x="317.65000000000003" y="153.81000000000006" width="56.34" height="30" as="geometry"/>
                </mxCell>
                <mxCell id="116" style="edgeStyle=none;html=1;strokeColor=#000000;strokeWidth=3;fontSize=9;fontColor=#000000;startArrow=none;startFill=0;endArrow=classic;endFill=1;" parent="161" source="100" target="99" edge="1">
                    <mxGeometry relative="1" as="geometry"/>
                </mxCell>
                <mxCell id="114" style="edgeStyle=none;html=1;strokeColor=#000000;strokeWidth=3;fontSize=9;fontColor=#000000;startArrow=none;startFill=0;endArrow=classic;endFill=1;" parent="161" source="95" target="97" edge="1">
                    <mxGeometry relative="1" as="geometry"/>
                </mxCell>
                <mxCell id="119" style="edgeStyle=none;html=1;strokeColor=#000000;strokeWidth=3;fontSize=9;fontColor=#000000;startArrow=none;startFill=0;endArrow=classic;endFill=1;" parent="161" source="99" target="98" edge="1">
                    <mxGeometry relative="1" as="geometry"/>
                </mxCell>
                <mxCell id="115" style="edgeStyle=none;html=1;strokeColor=#000000;strokeWidth=3;fontSize=9;fontColor=#000000;startArrow=none;startFill=0;endArrow=classic;endFill=1;" parent="161" source="97" target="98" edge="1">
                    <mxGeometry relative="1" as="geometry"/>
                </mxCell>
                <mxCell id="129" style="edgeStyle=none;html=1;strokeColor=#000000;strokeWidth=3;fontSize=9;fontColor=#000000;startArrow=none;startFill=0;endArrow=classic;endFill=1;exitX=0.5;exitY=1;exitDx=0;exitDy=0;entryX=0.5;entryY=0;entryDx=0;entryDy=0;" parent="161" source="98" target="126" edge="1">
                    <mxGeometry relative="1" as="geometry">
                        <mxPoint x="350.99" y="357.00423379520885" as="sourcePoint"/>
                        <mxPoint x="544.3000000000001" y="367.60117504305595" as="targetPoint"/>
                    </mxGeometry>
                </mxCell>
                <mxCell id="178" style="edgeStyle=none;html=1;exitX=0.25;exitY=0;exitDx=0;exitDy=0;" edge="1" parent="1" source="163" target="162">
                    <mxGeometry relative="1" as="geometry"/>
                </mxCell>
                <mxCell id="163" value="&lt;b&gt;MCU&lt;/b&gt;" style="text;strokeColor=none;align=center;fillColor=none;html=1;verticalAlign=middle;whiteSpace=wrap;rounded=0;glass=0;sketch=0;fontSize=9;fontColor=#000000;" vertex="1" parent="1">
                    <mxGeometry x="196.34" y="571.48" width="40" height="8.52" as="geometry"/>
                </mxCell>
                <mxCell id="96" value="&lt;font style=&quot;font-size: 9px;&quot; color=&quot;#000000&quot;&gt;Postion&lt;br&gt;estimator&lt;/font&gt;" style="text;strokeColor=#000000;align=center;fillColor=#FFFFFF;html=1;verticalAlign=middle;whiteSpace=wrap;rounded=0;glass=0;" parent="1" vertex="1">
                    <mxGeometry x="100.17" y="590" width="56.34" height="30" as="geometry"/>
                </mxCell>
                <mxCell id="117" style="edgeStyle=none;html=1;strokeColor=#000000;strokeWidth=3;fontSize=9;fontColor=#000000;startArrow=none;startFill=0;endArrow=classic;endFill=1;" parent="1" source="99" target="96" edge="1">
                    <mxGeometry relative="1" as="geometry"/>
                </mxCell>
                <mxCell id="112" style="edgeStyle=none;html=1;strokeColor=#000000;strokeWidth=3;fontSize=9;fontColor=#000000;startArrow=none;startFill=0;endArrow=classic;endFill=1;" parent="1" source="96" target="95" edge="1">
                    <mxGeometry relative="1" as="geometry"/>
                </mxCell>
                <mxCell id="168" value="&lt;font style=&quot;font-size: 9px;&quot; color=&quot;#000000&quot;&gt;ArUco&lt;br&gt;&lt;/font&gt;" style="text;strokeColor=#000000;align=center;fillColor=#FFFFFF;html=1;verticalAlign=middle;whiteSpace=wrap;rounded=0;glass=0;" vertex="1" parent="1">
                    <mxGeometry x="209.83" y="19.99999999999997" width="56.34" height="50" as="geometry"/>
                </mxCell>
                <mxCell id="169" value="&lt;font style=&quot;font-size: 9px;&quot; color=&quot;#000000&quot;&gt;Image process&lt;br&gt;&lt;/font&gt;" style="text;strokeColor=#000000;align=center;fillColor=#FFFFFF;html=1;verticalAlign=middle;whiteSpace=wrap;rounded=0;glass=0;" vertex="1" parent="1">
                    <mxGeometry x="126.83999999999997" y="356.03999999999996" width="56.34" height="50" as="geometry"/>
                </mxCell>
                <mxCell id="170" value="" style="whiteSpace=wrap;html=1;rounded=0;glass=0;sketch=0;strokeColor=#000000;fontSize=9;fontColor=#000000;fillColor=#FFFFFF;" vertex="1" parent="1">
                    <mxGeometry x="109.99999999999999" y="139.98" width="230" height="145" as="geometry"/>
                </mxCell>
                <mxCell id="171" value="&lt;font style=&quot;font-size: 9px;&quot; color=&quot;#000000&quot;&gt;Capture frame&lt;br&gt;&lt;/font&gt;" style="text;strokeColor=#000000;align=center;fillColor=#FFFFFF;html=1;verticalAlign=middle;whiteSpace=wrap;rounded=0;glass=0;" vertex="1" parent="1">
                    <mxGeometry x="193.49" y="179.98" width="56.34" height="50" as="geometry"/>
                </mxCell>
                <mxCell id="173" value="&lt;b&gt;Camera&lt;/b&gt;" style="text;strokeColor=none;align=center;fillColor=none;html=1;verticalAlign=middle;whiteSpace=wrap;rounded=0;glass=0;sketch=0;fontSize=9;fontColor=#000000;" vertex="1" parent="1">
                    <mxGeometry x="198.92000000000002" y="159.98" width="40" height="8.52" as="geometry"/>
                </mxCell>
                <mxCell id="176" value="&lt;b&gt;PC&lt;/b&gt;" style="text;strokeColor=none;align=center;fillColor=none;html=1;verticalAlign=middle;whiteSpace=wrap;rounded=0;glass=0;sketch=0;fontSize=9;fontColor=#000000;" vertex="1" parent="1">
                    <mxGeometry x="143.18" y="339" width="40" height="8.52" as="geometry"/>
                </mxCell>
                <mxCell id="177" value="&lt;font style=&quot;font-size: 9px;&quot; color=&quot;#000000&quot;&gt;Detect ArUco&lt;br&gt;code&lt;br&gt;&lt;/font&gt;" style="text;strokeColor=#000000;align=center;fillColor=#FFFFFF;html=1;verticalAlign=middle;whiteSpace=wrap;rounded=0;glass=0;" vertex="1" parent="1">
                    <mxGeometry x="126.83999999999997" y="415.02" width="56.34" height="50" as="geometry"/>
                </mxCell>
                <mxCell id="181" style="edgeStyle=none;html=1;strokeColor=#000000;strokeWidth=3;fontSize=9;fontColor=#000000;startArrow=classic;startFill=1;endArrow=none;endFill=0;" edge="1" parent="1" source="96" target="118">
                    <mxGeometry relative="1" as="geometry">
                        <Array as="points"/>
                        <mxPoint x="180.00119266055043" y="610.24" as="sourcePoint"/>
                        <mxPoint x="165.1946788990827" y="541.2399999999999" as="targetPoint"/>
                    </mxGeometry>
                </mxCell>
            </root>
        </mxGraphModel>
    </diagram>
</mxfile>